<?xml version="1.0" ?><svg enable-background="new 0 0 512 512" id="Layer_1" version="1.1" viewBox="0 0 512 512" xml:space="preserve" xmlns="http://www.w3.org/2000/svg" xmlns:xlink="http://www.w3.org/1999/xlink"><g><g><linearGradient gradientUnits="userSpaceOnUse" id="SVGID_1_" x1="-0.0000027" x2="512" y1="256" y2="256"><stop offset="0" style="stop-color:#E24263"/><stop offset="1" style="stop-color:#DD1E47"/></linearGradient><circle cx="256" cy="256" fill="url(#SVGID_1_)" r="256"/><linearGradient gradientUnits="userSpaceOnUse" id="SVGID_2_" x1="42.6666641" x2="469.3333435" y1="256.0005188" y2="256.0005188"><stop offset="0" style="stop-color:#DD1E47"/><stop offset="1" style="stop-color:#E24263"/></linearGradient><path d="M256,469.3338623c-117.6309967,0-213.3333435-95.7018738-213.3333435-213.3333435    c0-117.6309204,95.7023392-213.333313,213.3333435-213.333313c117.6362,0,213.3333435,95.7024002,213.3333435,213.333313    C469.3333435,373.6319885,373.6362,469.3338623,256,469.3338623z" fill="url(#SVGID_2_)"/></g><g><circle cx="264.0003662" cy="263.9998779" opacity="0.3" r="42.944252"/><rect height="53.1349335" opacity="0.3" width="10" x="258.999939" y="144"/><rect height="53.136528" opacity="0.3" transform="matrix(0.7071118 -0.7071018 0.7071018 0.7071118 -81.9865417 197.9311218)" width="9.998867" x="192.9337006" y="171.3648071"/><rect height="10" opacity="0.3" width="53.1348763" x="144" y="259"/><rect height="9.998867" opacity="0.3" transform="matrix(0.7071335 -0.7070801 0.7070801 0.7071335 -175.4157715 236.6201477)" width="53.136528" x="171.3648682" y="325.0675049"/><rect height="53.1349335" opacity="0.3" width="10" x="258.999939" y="330.8650818"/><rect height="53.1367188" opacity="0.3" transform="matrix(0.7071068 -0.7071068 0.7071068 0.7071068 -136.7182159 330.0668945)" width="9.9990559" x="325.0673523" y="303.4985657"/><rect height="10" opacity="0.3" width="53.1344643" x="330.8655396" y="259"/><rect height="9.9990559" opacity="0.3" transform="matrix(0.7071068 -0.7071068 0.7071068 0.7071068 -43.2854652 291.3657837)" width="53.1367188" x="303.4985046" y="192.9335327"/></g><g><circle cx="256.0003662" cy="255.9998627" fill="#FFFFFF" r="42.944252"/><rect fill="#FFFFFF" height="53.1349335" width="10" x="250.999939" y="136"/><rect fill="#FFFFFF" height="53.136528" transform="matrix(0.7071118 -0.7071018 0.7071018 0.7071118 -78.6728287 189.9312134)" width="9.998867" x="184.9337006" y="163.3648071"/><rect fill="#FFFFFF" height="10" width="53.1348763" x="136" y="251"/><rect fill="#FFFFFF" height="9.998867" transform="matrix(0.7071335 -0.7070801 0.7070801 0.7071335 -172.102066 228.620575)" width="53.136528" x="163.3648682" y="317.0675049"/><rect fill="#FFFFFF" height="53.1349335" width="10" x="250.999939" y="322.8650818"/><rect fill="#FFFFFF" height="53.1367188" transform="matrix(0.7071068 -0.7071068 0.7071068 0.7071068 -133.4045105 322.0668945)" width="9.9990559" x="317.0673523" y="295.4985657"/><rect fill="#FFFFFF" height="10" width="53.1344643" x="322.8655396" y="251"/><rect fill="#FFFFFF" height="9.9990559" transform="matrix(0.7071068 -0.7071068 0.7071068 0.7071068 -39.971756 283.3657837)" width="53.1367188" x="295.4985046" y="184.9335327"/></g></g></svg>